<svg xmlns="http://www.w3.org/2000/svg" width="800" height="450" viewBox="0 0 800 450"><defs><linearGradient id="bg" x1="0" y1="0" x2="1" y2="1"><stop stop-color="#0B0F2C"/><stop offset=".55" stop-color="#3B176E"/><stop offset="1" stop-color="#0F172A"/></linearGradient></defs><rect width="800" height="450" rx="28" fill="url(#bg)"/><g stroke="#22D3EE" stroke-width="5" stroke-linecap="round"><path d="M120 110 L170 128 M240 110 L295 92 M360 110 L410 128 M480 110 L535 92 M600 110 L650 128 M120 180 L175 162 M240 180 L290 198 M360 180 L415 162 M480 180 L530 198 M600 180 L655 162 M120 250 L170 268 M240 250 L295 232 M360 250 L410 268 M480 250 L535 232 M600 250 L650 268"/></g><text x="400" y="382" text-anchor="middle" fill="#F8FAFC" font-family="Segoe UI, Arial" font-size="32" font-weight="800">Motion Analysis Lab</text><text x="400" y="418" text-anchor="middle" fill="#C4B5FD" font-family="Segoe UI, Arial" font-size="19">Optical Flow • Keypoints • Signal Extraction</text></svg>